PathFileType	4	(X/Y/Z)	 s09c0101.trc
DataRate	CameraRate	NumFrames	NumMarkers	Units	OrigDataRate	OrigDataStartFrame	OrigNumFrames
200	200	4	50	mm	200	1501	2000
Frame#	Time	racr			lacr			c7			jug			rlel			rdr			llel			ldr			s2			lic			ric			lasi			rasi			rpsi			lpsi			rgt			lgt			rth1			rth2			rth3			rth4			rlfc			rmfc			rsh1			rsh2			rsh3			rsh4			rlmal			rmmal			rcal			rtoe			rmt5			lth1			lth2			lth4			lth3			llfc			lmfc			llmal			lmmal			lcal			lmt5			lsh1			lsh2			lsh3			lsh4			ltoe			SBIKE			LBIKE			RBIKE			
		X1	Y1	Z1	X2	Y2	Z2	X3	Y3	Z3	X4	Y4	Z4	X5	Y5	Z5	X6	Y6	Z6	X7	Y7	Z7	X8	Y8	Z8	X9	Y9	Z9	X10	Y10	Z10	X11	Y11	Z11	X12	Y12	Z12	X13	Y13	Z13	X14	Y14	Z14	X15	Y15	Z15	X16	Y16	Z16	X17	Y17	Z17	X18	Y18	Z18	X19	Y19	Z19	X20	Y20	Z20	X21	Y21	Z21	X22	Y22	Z22	X23	Y23	Z23	X24	Y24	Z24	X25	Y25	Z25	X26	Y26	Z26	X27	Y27	Z27	X28	Y28	Z28	X29	Y29	Z29	X30	Y30	Z30	X31	Y31	Z31	X32	Y32	Z32	X33	Y33	Z33	X34	Y34	Z34	X35	Y35	Z35	X36	Y36	Z36	X37	Y37	Z37	X38	Y38	Z38	X39	Y39	Z39	X40	Y40	Z40	X41	Y41	Z41	X42	Y42	Z42	X43	Y43	Z43	X44	Y44	Z44	X45	Y45	Z45	X46	Y46	Z46	X47	Y47	Z47	X48	Y48	Z48	X49	Y49	Z49	X50	Y50	Z50	
1501	7.5050	526.191736	1279.545303	-91.922630	591.461760	1256.577537	-371.950348	531.546596	1294.739710	-233.576235	505.687557	1152.974025	-229.515948	501.310234	1041.162449	13.870323	686.469898	881.759317	-49.210149	552.621253	1049.176022	-553.715794	695.589709	875.827600	-453.659415	40.156338	1121.056668	-284.519208	183.613970	1104.546341	-417.560184	171.055247	1140.504860	-125.718472	219.754349	1053.479348	-385.007286	216.245368	1086.221181	-137.338692	62.497331	1161.671930	-225.952956	71.036491	1155.625479	-335.768982	167.296438	1026.634492	-73.613072	138.416372	962.811209	-444.310654	293.618285	979.805504	-88.601253	379.141720	971.073579	-104.340640	449.789992	917.449086	-105.658517	387.830101	993.708973	-132.326018	524.319388	840.204682	-139.403091	499.899764	813.913434	-238.594459	446.154793	782.387772	-102.788621	396.843005	708.286312	-108.312336	318.359042	669.444599	-99.327536	415.504423	687.940049	-136.864943	239.856028	601.565252	-88.405003	243.397125	602.712685	-164.652479	160.951800	630.920112	-122.915150	323.944987	422.133349	-130.875925	261.138356	474.969890	-65.258829	209.816016	846.181565	-439.958082	272.086593	788.812901	-431.057370	302.901508	807.017756	-418.473850	297.812972	702.313270	-421.667158	329.896588	612.377459	-401.807707	334.228519	598.409898	-304.745263	259.324366	253.932466	-411.682847	279.215253	260.926698	-341.361507	191.417642	228.686744	-376.019468	351.562607	157.778282	-432.868532	302.128599	515.500035	-426.894026	312.279409	430.048187	-419.285642	277.328689	348.305161	-417.844478	338.266662	428.464607	-388.583195	443.430652	162.017851	-361.880224	-65.157788	853.383927	-240.363332	20.805883	84.387094	-442.139601	21.057203	84.119108	-44.068827	
1502	7.5100	525.371106	1280.011710	-87.875995	592.358249	1257.134652	-367.410408	531.897142	1295.199347	-228.860471	505.821000	1153.331739	-225.793807	503.236170	1041.375959	17.145964	687.095299	881.730213	-47.393577	552.485489	1050.831702	-550.467914	695.888651	876.014681	-452.468561	40.590893	1121.806724	-284.707272	185.333091	1105.101089	-416.502240	171.039047	1141.183509	-125.094213	220.868002	1054.116031	-383.824120	216.138855	1086.674082	-136.451581	62.748681	1162.260443	-225.890843	72.075738	1156.506180	-335.789346	167.298716	1028.419256	-73.600532	139.194773	963.077929	-444.660382	293.959328	984.243605	-89.417343	379.652133	976.464850	-105.734043	450.891768	924.293157	-106.776731	387.743181	999.302036	-133.780718	527.829150	847.442341	-141.584668	502.393872	820.570332	-238.633541	449.346146	789.863051	-103.786438	401.350148	714.810404	-108.631116	323.496735	674.735920	-99.446135	420.645207	694.501283	-136.534066	246.433968	605.016524	-88.164158	249.232720	606.782312	-164.844535	165.306764	632.222096	-122.539804	335.043284	428.892602	-130.899430	270.580268	479.702112	-65.228248	207.998812	846.250989	-440.232468	269.374047	787.818090	-431.712309	300.537642	805.626619	-418.972921	293.652975	700.843790	-422.358498	324.088546	610.311498	-402.650254	329.073102	596.208519	-306.020609	251.910932	252.406596	-411.575426	272.411305	259.062726	-341.685510	183.753548	228.794039	-375.617561	342.240057	154.413308	-432.694267	295.845193	513.810183	-427.334901	305.598093	428.312422	-419.647202	270.305942	346.753831	-418.045488	331.842579	426.671837	-389.170650	434.130478	156.363890	-361.751049	-65.166746	853.498904	-240.280375	20.820218	84.437815	-442.111851	21.092520	84.063583	-44.007460	
1503	7.5150	524.659767	1280.637604	-84.128829	593.236514	1257.637262	-362.950712	532.103274	1295.589503	-224.469450	505.832532	1153.711174	-222.153227	505.170609	1041.797137	20.345219	687.858959	881.456162	-45.780901	552.253638	1052.490433	-547.229055	696.097212	876.431871	-451.121950	40.683219	1122.895609	-284.589873	186.798063	1105.789854	-415.360877	170.821965	1141.825517	-124.304690	221.767493	1054.770229	-382.586841	215.977343	1087.134697	-135.368318	62.947479	1162.917873	-225.633672	72.998433	1157.361187	-335.453782	167.403158	1030.449286	-73.092500	139.776540	963.601261	-445.114654	294.240406	988.626696	-89.956905	379.825691	981.769715	-106.883880	451.859760	930.599804	-107.938184	387.466995	1004.521660	-135.125311	529.340297	855.572281	-141.181890	504.832763	827.084122	-239.343340	452.209704	796.606968	-104.698223	405.146194	720.486984	-109.291030	328.555505	679.101682	-99.485870	424.409339	700.271598	-137.350096	252.731211	607.713986	-87.938441	255.065089	610.129588	-164.518438	169.879958	632.977673	-122.334798	346.243440	435.283908	-130.972276	280.298002	483.841683	-65.154745	206.179557	846.546045	-440.545601	266.710550	787.106656	-432.333842	298.185063	804.518840	-419.777147	289.673601	699.830456	-423.022173	318.675773	608.775594	-403.433293	324.970129	594.804904	-306.588081	244.361090	251.599898	-411.835765	265.457647	258.069113	-342.393388	175.879848	229.449676	-375.174526	332.560738	151.630056	-432.442148	289.956702	512.672260	-427.660922	299.098829	427.280499	-419.964941	263.207316	345.859471	-418.135736	325.449607	425.292747	-389.685479	424.503052	151.353087	-361.642059	-65.177311	853.553149	-240.153757	20.819110	84.529712	-442.073918	21.082322	84.078215	-44.008504	
1504	7.5200	524.110663	1281.285662	-80.709670	594.038180	1258.068368	-358.492009	532.244654	1296.047759	-220.016489	505.731720	1154.109487	-218.608845	507.422334	1041.942489	23.076455	688.673339	881.217711	-44.567940	551.902873	1054.169902	-543.974048	696.330765	876.901029	-449.804736	40.569152	1124.627597	-284.381618	188.045949	1106.667893	-414.188679	170.678265	1142.510798	-123.579157	222.489946	1055.575192	-381.370167	215.639894	1087.530640	-134.324009	63.107030	1163.751329	-225.179597	73.745842	1158.435492	-335.100092	167.465584	1032.645956	-72.471026	140.001621	964.158618	-445.410658	294.454934	992.769203	-90.442138	379.956974	986.705156	-107.899989	452.999641	936.568462	-109.500304	387.144356	1009.442744	-136.250852	531.850155	862.656839	-141.178199	507.000295	833.248079	-239.990084	454.755137	802.619719	-105.500452	409.170745	725.437288	-109.564347	333.444157	682.644243	-99.446436	428.725476	705.436873	-137.498711	258.802413	609.707797	-87.742148	260.840468	612.502385	-164.210366	174.906628	632.707356	-121.528324	357.575580	441.290283	-131.108205	290.062376	487.498826	-65.112390	204.303414	846.948242	-440.903861	263.893856	786.554941	-432.586669	295.872583	803.694173	-420.618391	285.861064	699.169870	-423.697915	313.757463	607.866796	-404.199027	321.482052	593.918892	-307.049650	236.447895	251.285117	-411.861097	258.079920	257.310013	-342.829351	167.681203	230.623189	-374.911834	322.648435	149.488681	-432.266488	284.539923	511.960051	-427.873986	292.744652	426.389208	-420.099907	256.060258	345.461732	-418.148438	319.345816	424.255920	-390.132802	414.619040	147.068116	-361.587678	-65.199669	853.605201	-240.031466	20.799123	84.597838	-442.042057	21.094751	84.085729	-43.975795	
